<?xml version="1.0" encoding="UTF-8"?>
<svg id="a" data-name="隔离模式" xmlns="http://www.w3.org/2000/svg" viewBox="0 0 95 10.06">
  <defs>
    <style>
      .b {
        fill-rule: evenodd;
      }

      .b, .c {
        fill: #0f4b92;
        stroke-width: 0px;
      }
    </style>
  </defs>
  <rect class="c" x="2.89" y="5.99" width="1.96" height="4.07"/>
  <polygon class="b" points="2.89 2.32 0 2.32 0 .55 7.74 .55 7.74 2.32 4.85 2.32 4.85 4.62 2.89 4.62 2.89 2.32"/>
  <rect class="c" x="9.97" y=".55" width="1.96" height="4.07"/>
  <rect class="c" x="9.97" y="5.99" width="1.96" height="4.07"/>
  <path class="b" d="M18.3,5.99c-.53,1.33-1.06,2.66-1.6,3.99l-.03.08h-2.2l1.81-4.07h2.02Z"/>
  <path class="b" d="M19.46,3.04c-.2.53-.41,1.05-.62,1.58h-1.95l1.81-4.07h1.64l4.18,9.51h-2.24l-.03-.08c-.96-2.3-1.89-4.61-2.79-6.93"/>
  <polygon class="b" points="33.31 7.1 33.31 .55 35.27 .55 35.27 10.06 32.92 10.06 28.46 3.28 28.46 10.06 26.49 10.06 26.49 .55 28.94 .55 33.31 7.1"/>
  <polygon class="b" points="41.17 6.01 37.5 .55 39.96 .55 42.19 4.1 44.45 .55 46.8 .55 43.14 6.01 43.14 10.06 41.17 10.06 41.17 6.01"/>
  <path class="b" d="M52.1,3.04c-.91,2.31-1.83,4.63-2.77,6.93l-.03.08h-2.19L51.33.55h1.64l4.19,9.51h-2.24l-.03-.08c-.95-2.3-1.88-4.61-2.78-6.93"/>
  <polygon class="b" points="66.06 7.1 66.06 .55 68.03 .55 68.03 10.06 65.68 10.06 61.22 3.28 61.22 10.06 59.25 10.06 59.25 .55 61.69 .55 66.06 7.1"/>
  <path class="b" d="M86.18,9.14v.87c1.98-.06,3.32-.61,4.01-1.65h-1.88c-.43.41-1.14.67-2.13.78"/>
  <path class="b" d="M83.86,2.83c.3.55.53,1.25.69,2.09h1.63c-.2-.75-.48-1.45-.84-2.09h-1.49Z"/>
  <path class="b" d="M84.7,5.44c-.13,1.54-.5,3-1.09,4.4h1.68c.43-1.07.73-2.54.89-4.4h-1.49Z"/>
  <path class="b" d="M93.81,3.22v-.7h1.14V.61h-3.27v-.61h-2.03v.61h-3.27v1.92h1.09v.7h2.33v.65h-2.97v4.14h6.09c1.06.03,1.57-.48,1.54-1.52v-2.61h-3.02v-.65h2.38ZM89.8,7.05h-1.49v-.7h1.49v.7ZM89.8,5.49h-1.49v-.7h1.49v.7ZM92.97,6.53c.03.38-.17.55-.6.52h-.94v-.7h1.54v.17ZM92.97,5.49h-1.54v-.7h1.54v.7ZM88.02,1.61h5.3v.61h-5.3v-.61Z"/>
  <path class="b" d="M91.14,8.36c.56,1.01,1.85,1.58,3.86,1.7v-.91c-.96-.11-1.65-.38-2.08-.78h-1.78Z"/>
  <path class="b" d="M86.03,2.31c-.13-.64-.4-1.33-.79-2.09h-1.48c.33.73.56,1.42.69,2.09h1.59Z"/>
  <path class="b" d="M77.69,4.92h4.36v-1.13h-4.46V1.7h3.82V.57h-9.91v.3h4.95v.33h-4.95v.49h3.91v.8h1.04v.33h-1.04v.95h-4.61v.35h5.65v.33h-5.65v.45h4.46c-.06.29-.16.57-.29.84h1.48v.33h-1.64c-.27.47-.67.9-1.16,1.3h2.3c.21-.23.4-.48.54-.73.86,1.51,2.74,2.64,5.65,3.4v-1.05c-2.54-.99-4.03-2.35-4.46-4.09"/>
  <path class="b" d="M70.93,10.06c.81-.2,1.54-.44,2.19-.7h-2.19v.7Z"/>
  <path class="b" d="M70.93,9.01h0s2.96.01,2.96.01c.78-.38,1.43-.81,1.94-1.3h-2.42c-.67.47-1.49.9-2.47,1.28"/>
</svg>